<?xml version="1.0" encoding="UTF-8"?>
<svg id="Layer_1" xmlns="http://www.w3.org/2000/svg" viewBox="0 0 64 64">
  <defs>
    <style>
      .cls-1 {
        fill: #58595b;
      }

      .cls-2 {
        fill: #e41e26;
      }
    </style>
  </defs>
  <g>
    <path class="cls-2" d="M29.71,17.79c0-.08,0-.16,0-.24,0-2.1,0-4.21,0-6.31,0-.3,0-.3.31-.3,1.09,0,2.19,0,3.28,0,.22,0,.29.06.29.28,0,2.1,0,4.21,0,6.31,0,.09,0,.18,0,.34.11-.09.18-.14.23-.19,1.47-1.47,2.93-2.93,4.4-4.4.36-.36.28-.33.61,0,.75.74,1.49,1.49,2.24,2.24.22.22.22.22,0,.45-1.43,1.43-2.87,2.85-4.28,4.29-.74.75-1.53,1.41-2.5,1.82-2.56,1.08-5.4.52-7.39-1.46-1.56-1.56-3.11-3.12-4.68-4.67-.16-.16-.17-.25,0-.41.81-.79,1.61-1.6,2.4-2.4.15-.15.23-.1.35.02,1.44,1.44,2.88,2.88,4.31,4.32.12.12.21.26.31.4.04-.03.08-.05.12-.08Z"/>
    <path class="cls-2" d="M25.12,25.64c-.19-.05-.37-.11-.56-.16-1.94-.52-3.89-1.04-5.83-1.56-.16-.04-.22-.1-.17-.27.3-1.11.6-2.22.89-3.33.04-.16.1-.23.29-.18,2.21.6,4.42,1.18,6.63,1.78,2.79.76,4.8,3.42,4.81,6.31,0,.94-.23,1.83-.47,2.72-.5,1.85-.99,3.69-1.48,5.54-.06.22-.14.26-.35.2-1.07-.3-2.14-.58-3.22-.86-.2-.05-.27-.12-.21-.35.55-2.02,1.09-4.05,1.63-6.07.02-.09.04-.18.07-.32-.13.06-.22.09-.3.14-1.83,1.05-3.66,2.11-5.49,3.17-.16.09-.24.08-.33-.08-.56-.98-1.13-1.97-1.7-2.94-.11-.18-.09-.27.1-.38,1.83-1.05,3.65-2.1,5.47-3.15.08-.04.15-.09.22-.14,0-.02,0-.04,0-.06Z"/>
    <path class="cls-2" d="M38.2,25.72c.18.11.37.21.55.32,1.72.99,3.44,1.99,5.17,2.98.16.09.17.18.08.33-.58.98-1.15,1.97-1.71,2.96-.1.17-.18.18-.34.09-1.82-1.06-3.64-2.11-5.46-3.16-.08-.05-.17-.09-.3-.15.02.12.02.18.04.24.54,2.02,1.09,4.05,1.63,6.07.09.35.1.35-.26.45-1.06.29-2.13.57-3.19.86-.18.05-.24,0-.29-.17-.56-2.11-1.12-4.22-1.69-6.32-.42-1.52-.38-3.01.24-4.46.86-2.02,2.37-3.31,4.48-3.89,2.14-.59,4.29-1.15,6.43-1.73.21-.06.27,0,.32.19.28,1.08.57,2.16.87,3.24.06.21.02.3-.2.35-2,.53-4.01,1.07-6.01,1.61-.11.03-.21.07-.32.1,0,.03,0,.05,0,.08Z"/>
  </g>
  <g>
    <path d="M1.17,40.7h3.19v7.12c0,1.44.77,2.48,2.46,2.48s2.44-1.04,2.44-2.48v-7.12h3.19v7.22c0,3.02-1.73,5.16-5.63,5.16s-5.65-2.15-5.65-5.14v-7.23Z"/>
    <path d="M20.59,40.5c2.66,0,4.3,1.31,5.19,2.82l-2.62,1.38c-.49-.8-1.42-1.44-2.57-1.44-1.99,0-3.39,1.53-3.39,3.52s1.4,3.52,3.39,3.52c.95,0,1.8-.33,2.3-.73v-1.02h-2.79v-2.61h5.87v4.76c-1.31,1.44-3.08,2.37-5.38,2.37-3.63,0-6.58-2.42-6.58-6.29s2.95-6.29,6.58-6.29Z"/>
    <path class="cls-1" d="M36.07,52.85l-5.14-7.34v7.34h-3.13v-12.15h3.22l4.92,7v-7h3.15v12.15h-3.02Z"/>
    <path class="cls-1" d="M48.99,52.85l-2.64-4.08-2.64,4.08h-3.72l4.25-6.23-3.97-5.92h3.7l2.39,3.81,2.35-3.81h3.72l-3.95,5.9,4.23,6.25h-3.7Z"/>
    <path class="cls-1" d="M56.31,52.85v-9.42h-3.41v-2.73h9.93v2.73h-3.39v9.42h-3.13Z"/>
  </g>
</svg>